<?xml version="1.0" encoding="utf-8"?>
<!-- Generator: Adobe Illustrator 16.0.0, SVG Export Plug-In . SVG Version: 6.00 Build 0)  -->
<!DOCTYPE svg PUBLIC "-//W3C//DTD SVG 1.1//EN" "http://www.w3.org/Graphics/SVG/1.1/DTD/svg11.dtd">
<svg version="1.1" id="Layer_1" xmlns="http://www.w3.org/2000/svg" xmlns:xlink="http://www.w3.org/1999/xlink" x="0px" y="0px"
	 width="960px" height="560px" viewBox="0 0 960 560" enable-background="new 0 0 960 560" xml:space="preserve">
<path fill="#f88379" d="M515,142.778V122.5h17.5c9.669,0,17.5-7.831,17.5-17.5V87.5c0-9.669-7.831-17.5-17.5-17.5h-105
	c-9.669,0-17.5,7.831-17.5,17.5V105c0,9.669,7.831,17.5,17.5,17.5H445v20.278C326.317,159.808,235,261.603,235,385h490
	C725,261.603,633.683,159.808,515,142.778z M742.5,420h-525c-9.669,0-17.5,7.831-17.5,17.5v35c0,9.669,7.831,17.5,17.5,17.5h525
	c9.669,0,17.5-7.831,17.5-17.5v-35C760,427.831,752.169,420,742.5,420z"/>
</svg>
