<?xml version="1.0" encoding="utf-8"?>
<!-- Generator: Adobe Illustrator 16.0.0, SVG Export Plug-In . SVG Version: 6.00 Build 0)  -->
<!DOCTYPE svg PUBLIC "-//W3C//DTD SVG 1.1//EN" "http://www.w3.org/Graphics/SVG/1.1/DTD/svg11.dtd">
<svg version="1.1" id="Layer_1" xmlns="http://www.w3.org/2000/svg" xmlns:xlink="http://www.w3.org/1999/xlink" x="0px" y="0px"
	 width="960px" height="560px" viewBox="0 0 960 560" enable-background="new 0 0 960 560" xml:space="preserve">
<path fill="#FBB4AE" d="M523.75,35h210C748.248,35,760,46.752,760,61.25v175c0,14.498-11.752,26.25-26.25,26.25h-210
	c-14.498,0-26.25-11.752-26.25-26.25v-175C497.5,46.752,509.252,35,523.75,35z"/>
<path fill="#B3CDE3" d="M436.25,35h-210C211.752,35,200,46.752,200,61.25v175c0,14.498,11.752,26.25,26.25,26.25h210
	c14.498,0,26.25-11.752,26.25-26.25v-175C462.5,46.752,450.748,35,436.25,35z"/>
<path fill="#CCEBC5" d="M200,323.75v175c0,14.498,11.752,26.25,26.25,26.25h210c14.498,0,26.25-11.752,26.25-26.25v-175
	c0-14.498-11.752-26.25-26.25-26.25h-210C211.752,297.5,200,309.252,200,323.75z"/>
<path fill="#FFFFB2" d="M523.75,525h210c14.498,0,26.25-11.752,26.25-26.25v-175c0-14.498-11.752-26.25-26.25-26.25h-210
	c-14.498,0-26.25,11.752-26.25,26.25v175C497.5,513.248,509.252,525,523.75,525z"/>
</svg>
